<svg xmlns="http://www.w3.org/2000/svg" xmlns:xlink="http://www.w3.org/1999/xlink" width="120" height="100" viewBox="0 0 120 100"><defs><clipPath id="a"><rect width="120" height="100" fill="none"/></clipPath><clipPath id="c"><rect width="120" height="100"/></clipPath></defs><g id="b" clip-path="url(#c)"><g transform="translate(36 30)"><g transform="translate(-36 -30)" clip-path="url(#a)"><g transform="translate(88.059 3.87)"><path d="M127.926,35.611a51.871,51.871,0,0,1,1.577,5.237l1.78-.44A53.464,53.464,0,0,0,129.65,35Z" transform="translate(-105.331 -6.292)" fill="#fff"/><path d="M133.212,51.58a54.4,54.4,0,0,0-.679-5.613l-1.815.312a53.683,53.683,0,0,1,.67,5.429Z" transform="translate(-105.804 -8.161)" fill="#fff"/><path d="M118.618,15.3l-1.431,1.163a52.123,52.123,0,0,1,3.237,4.4l1.531-1.007a55.825,55.825,0,0,0-3.338-4.56" transform="translate(-103.515 -2.936)" fill="#fff"/><path d="M114.845,11.067c-1.284-1.373-2.65-2.7-4.062-3.937l-1.211,1.383a53.243,53.243,0,0,1,3.933,3.8Z" transform="translate(-102.227 -1.544)" fill="#fff"/><path d="M123.368,25.576a52.737,52.737,0,0,1,2.448,4.89l1.678-.733a56.181,56.181,0,0,0-2.522-5.055Z" transform="translate(-104.56 -4.534)" fill="#fff"/><path d="M106.362,3.6A55.418,55.418,0,0,0,101.685.4l-.953,1.566c1.55.943,3.063,1.987,4.52,3.086Z" transform="translate(-100.732 -0.397)" fill="#fff"/><path d="M129.313,79.691l-1.733-.613a52.353,52.353,0,0,1-2.081,5.054l1.659.787a55.97,55.97,0,0,0,2.155-5.228" transform="translate(-104.921 -13.802)" fill="#fff"/><path d="M132.326,68.763l-1.806-.3a53.143,53.143,0,0,1-1.192,5.329l1.77.494a54.194,54.194,0,0,0,1.229-5.521" transform="translate(-105.568 -11.993)" fill="#fff"/><path d="M121.475,94.765a52.655,52.655,0,0,0,3.017-4.789l-1.6-.889c-.89,1.585-1.871,3.141-2.907,4.624Z" transform="translate(-103.988 -15.508)" fill="#fff"/><path d="M114.229,103.538a51.134,51.134,0,0,0,3.778-4.212l-1.421-1.144c-1.147,1.41-2.375,2.783-3.659,4.074Z" transform="translate(-102.794 -17.057)" fill="#fff"/><path d="M108.864,106.106c-1.367,1.2-2.807,2.344-4.291,3.406L105.646,111c1.53-1.1,3.026-2.281,4.429-3.516Z" transform="translate(-101.382 -18.407)" fill="#fff"/></g><g transform="translate(4.548 3.541)"><path d="M22.617,6.611c-1.431,1.227-2.806,2.536-4.108,3.892l1.329,1.264c1.256-1.31,2.595-2.573,3.971-3.754Z" transform="translate(-3.314 -1.127)" fill="#fff"/><path d="M10.044,24.92,8.457,24a54.15,54.15,0,0,0-2.586,5.028l1.669.75a51.755,51.755,0,0,1,2.5-4.862" transform="translate(-1.176 -4.09)" fill="#fff"/><path d="M2.108,39.672l1.77.458A54.6,54.6,0,0,1,5.52,34.91L3.8,34.269a55.768,55.768,0,0,0-1.687,5.4" transform="translate(-0.54 -5.839)" fill="#fff"/><path d="M10.926,93.92,12.448,92.9A51.773,51.773,0,0,1,9.6,88.216l-1.614.87a55.155,55.155,0,0,0,2.935,4.834" transform="translate(-1.535 -15.03)" fill="#fff"/><path d="M17.918,102.8l1.321-1.273a52.811,52.811,0,0,1-3.6-4.13L14.2,98.525a53.075,53.075,0,0,0,3.714,4.276" transform="translate(-2.586 -16.595)" fill="#fff"/><path d="M.221,50.821l1.825.155c.156-1.813.395-3.635.725-5.42l-1.8-.338a55.339,55.339,0,0,0-.752,5.6" transform="translate(-0.221 -7.705)" fill="#fff"/><path d="M3.708,72.846A52.273,52.273,0,0,1,2.6,67.49l-1.816.284A56.456,56.456,0,0,0,1.93,73.313Z" transform="translate(-0.316 -11.499)" fill="#fff"/><path d="M7.217,83.243a52.572,52.572,0,0,1-2.008-5.081l-1.742.577A56.53,56.53,0,0,0,5.547,84Z" transform="translate(-0.77 -13.317)" fill="#fff"/><path d="M14.791,14.69a55.9,55.9,0,0,0-3.4,4.523l1.523,1.025A51.837,51.837,0,0,1,16.2,15.862Z" transform="translate(-2.11 -2.503)" fill="#fff"/><path d="M21.93,106.8a56.378,56.378,0,0,0,4.375,3.589l1.091-1.474c-1.458-1.08-2.889-2.252-4.237-3.47Z" transform="translate(-3.893 -17.966)" fill="#fff"/><path d="M28.1,4.605c1.467-1.079,3-2.1,4.557-3.039L31.72,0A54.162,54.162,0,0,0,27.006,3.14Z" transform="translate(-4.751 -0.001)" fill="#fff"/></g><path d="M39.559,26.049c-1.631-.067-3.266-.083-4.893-.122V21.01h-4.96c-.024-.974-.047-1.948-.095-2.922-.118-2.858-.288-5.717-.616-8.576-.328,2.859-.5,5.717-.612,8.576-.052.974-.075,1.948-.1,2.922h-4.94v4.913c-1.639.043-3.273.055-4.912.126-3.522.114-7.041.284-10.563.615,3.522.327,7.04.5,10.563.615,1.639.067,3.273.083,4.912.122v4.913h4.94c.024.974.044,1.948.095,2.926.114,2.859.288,5.717.616,8.576.328-2.858.5-5.717.616-8.576.052-.977.071-1.952.095-2.926h4.96V27.4c1.627-.04,3.262-.055,4.893-.126,3.522-.115,7.04-.284,10.563-.611-3.522-.327-7.041-.5-10.563-.615m-6.867,1.372v2.922H25.32V22.982h7.372v4.44Z" transform="translate(30.993 23.88)" fill="#ff1d43"/><path d="M37.573,21.762h0V20.579H30v7.559h1.185a6.38,6.38,0,0,1,6.385-6.375" transform="translate(16.778 16.767)" fill="#fff"/><path d="M90.3,28.139V20.58h-7.57v1.183h0a6.38,6.38,0,0,1,6.385,6.375H90.3Z" transform="translate(-17.081 16.766)" fill="#fff"/><path d="M31.187,73.3H30v7.559h7.57V79.679h0A6.38,6.38,0,0,1,31.187,73.3" transform="translate(16.779 -17.122)" fill="#fff"/><path d="M89.111,73.3a6.38,6.38,0,0,1-6.385,6.375h0v1.183H90.3V73.3H89.111Z" transform="translate(-17.081 -17.122)" fill="#fff"/></g></g></g></svg>