<svg xmlns="http://www.w3.org/2000/svg" xmlns:xlink="http://www.w3.org/1999/xlink" width="260" height="80" viewBox="0 0 260 80"><defs><clipPath id="b"><rect width="260" height="80"/></clipPath></defs><g id="a" clip-path="url(#b)"><g transform="translate(0 0.001)"><path d="M137.748,123.461H129.76v14.5Z" transform="translate(-82.046 -76.58)" fill="#ffc200"/><path d="M569.2,137.961H583.4l7.988-14.5H577.186Z" transform="translate(-359.397 -76.58)" fill="#ffc200"/><path d="M521.35,137.961h14.2l7.988-14.5h-14.2Z" transform="translate(-329.509 -76.58)" fill="#ffc200"/><path d="M473.484,137.961h14.206l7.988-14.5h-14.2Z" transform="translate(-299.256 -76.58)" fill="#ffc200"/><path d="M425.637,137.961h14.206l7.988-14.5H433.625Z" transform="translate(-269.015 -76.58)" fill="#ffc200"/><path d="M377.789,137.961h14.2l7.988-14.5h-14.2Z" transform="translate(-238.774 -76.58)" fill="#ffc200"/><path d="M329.941,137.961h14.2l7.988-14.5h-14.2Z" transform="translate(-208.533 -76.58)" fill="#ffc200"/><path d="M282.075,137.961h14.206l7.988-14.5H290.063Z" transform="translate(-178.28 -76.58)" fill="#ffc200"/><path d="M234.228,137.961h14.2l7.988-14.5h-14.2Z" transform="translate(-148.039 -76.58)" fill="#ffc200"/><path d="M186.381,137.961h14.2l7.988-14.5h-14.2Z" transform="translate(-117.798 -76.58)" fill="#ffc200"/><path d="M138.514,137.961H152.72l7.988-14.5H146.5Z" transform="translate(-87.545 -76.58)" fill="#ffc200"/><path d="M298.358,134.464H116.82v-23.8H311.351Zm-179.051-2.487H296.883l10.276-18.825H119.307Z" transform="translate(-71.407 -68.328)" fill="#fff"/><path d="M192.941,26.456h-7.988v14.5Z" transform="translate(-116.944 -16.843)" fill="#ff1d43"/><path d="M624.391,40.956H638.6l7.988-14.5H632.379Z" transform="translate(-394.534 -16.843)" fill="#ff1d43"/><path d="M576.544,40.956h14.2l7.988-14.5h-14.2Z" transform="translate(-364.074 -16.843)" fill="#ff1d43"/><path d="M528.678,40.956h14.206l7.988-14.5h-14.2Z" transform="translate(-334.14 -16.843)" fill="#ff1d43"/><path d="M480.831,40.956h14.206l7.988-14.5H488.818Z" transform="translate(-303.899 -16.843)" fill="#ff1d43"/><path d="M432.983,40.956h14.2l7.988-14.5h-14.2Z" transform="translate(-273.658 -16.843)" fill="#ff1d43"/><path d="M385.136,40.956h14.2l7.988-14.5h-14.2Z" transform="translate(-243.417 -16.843)" fill="#ff1d43"/><path d="M337.27,40.956h14.206l7.988-14.5H345.257Z" transform="translate(-213.164 -16.843)" fill="#ff1d43"/><path d="M289.422,40.956h14.2l7.988-14.5h-14.2Z" transform="translate(-182.923 -16.843)" fill="#ff1d43"/><path d="M241.575,40.956h14.2l7.988-14.5h-14.2Z" transform="translate(-152.682 -16.843)" fill="#ff1d43"/><path d="M193.708,40.956h14.206l7.988-14.5H201.7Z" transform="translate(-122.429 -16.843)" fill="#ff1d43"/><path d="M174.5,16.147H362.353L352.076,34.972H174.5Zm-2.487-2.487v23.8H353.552l12.993-23.8Z" transform="translate(-106.545 -8.697)" fill="#fff"/><path d="M68.516,17.129V90.9h51.555l8.712-9.058H77.228V45.6H88.949l6.224-6.472h6.953v-22Z" transform="translate(-43.618 -10.905)" fill="#fff"/><path d="M129.551,85.261l-6.224,6.224H191.8l-6.224-6.224Z" transform="translate(-77.807 -53.048)" fill="#fff"/><path d="M29.785,66.6,23.56,60.133V28.875l9.962-10.348V85.24H29.785ZM21.073,27.8V61.2L27.3,67.669V87.824h8.711V12.29Z" transform="translate(-13.415 -7.824)" fill="#fff"/><path d="M19.4,0,0,19.4V38.59H2.487V20.432L20.433,2.486h61.73V0Z" fill="#fff"/></g></g></svg>