<svg xmlns="http://www.w3.org/2000/svg" xmlns:xlink="http://www.w3.org/1999/xlink" width="272" height="272" viewBox="0 0 272 272"><defs><clipPath id="a"><rect width="272" height="272" fill="none"/></clipPath><clipPath id="c"><rect width="272" height="272"/></clipPath></defs><g id="b" clip-path="url(#c)"><g transform="translate(272) rotate(90)"><g clip-path="url(#a)"><path d="M194.6,347.28A2.362,2.362,0,1,0,194.7,352h.016a2.362,2.362,0,0,0-.064-4.723Z" transform="translate(-56.147 -101.405)" fill="#fff"/><path d="M181.372,347.036a2.286,2.286,0,1,0,.142,0Z" transform="translate(-52.27 -101.334)" fill="#fff"/><path d="M168.147,345.679a2.407,2.407,0,1,0,.346.031,2.57,2.57,0,0,0-.346-.031" transform="translate(-48.411 -100.938)" fill="#fff"/><path d="M207.9,346.435a1.393,1.393,0,0,0-.251.016,2.332,2.332,0,1,0,.251-.016" transform="translate(-60.018 -101.159)" fill="#fff"/><path d="M246.592,337.32a2.145,2.145,0,0,0-.82.157,2.361,2.361,0,1,0,3.039,1.385,2.392,2.392,0,0,0-2.22-1.542" transform="translate(-71.317 -98.497)" fill="#fff"/><path d="M233.962,341.454a2.207,2.207,0,0,0-.631.078,2.406,2.406,0,1,0,.631-.078" transform="translate(-67.627 -99.704)" fill="#fff"/><path d="M258.817,332.16a2.516,2.516,0,0,0-1.007.22,2.381,2.381,0,1,0,1.007-.22" transform="translate(-74.884 -96.99)" fill="#fff"/><path d="M118.594,52.549a2.355,2.355,0,0,0-1.1-4.44,2.264,2.264,0,0,0-1.085.268,2.356,2.356,0,1,0,2.188,4.172" transform="translate(-33.619 -14.048)" fill="#fff"/><path d="M155.094,343.233a2.382,2.382,0,1,0,.535.063,2.006,2.006,0,0,0-.535-.063" transform="translate(-44.599 -100.224)" fill="#fff"/><path d="M130.43,46.974a2.358,2.358,0,0,0-.928-4.533,2.72,2.72,0,0,0-.914.172v.016a2.36,2.36,0,1,0,1.842,4.345" transform="translate(-37.126 -12.393)" fill="#fff"/><path d="M96.54,66.59A2.376,2.376,0,0,0,97,63.27a2.4,2.4,0,0,0-1.889-.929,2.308,2.308,0,0,0-1.417.488,2.36,2.36,0,1,0,2.85,3.762" transform="translate(-27.084 -18.203)" fill="#fff"/><path d="M106,54.758a2.318,2.318,0,0,0-1.259.362A2.38,2.38,0,1,0,106,54.758" transform="translate(-30.263 -15.989)" fill="#fff"/><path d="M77.115,84.088a2.35,2.35,0,0,0-.109-3.338,2.362,2.362,0,1,0,.109,3.338" transform="translate(-21.325 -23.391)" fill="#fff"/><path d="M86.468,74.936a2.364,2.364,0,1,0-3.338-.173,2.38,2.38,0,0,0,3.338.173" transform="translate(-24.097 -20.677)" fill="#fff"/><path d="M68.567,94a2.373,2.373,0,0,0-.394-3.321,2.293,2.293,0,0,0-1.465-.5A2.359,2.359,0,1,0,68.567,94" transform="translate(-18.789 -26.332)" fill="#fff"/><path d="M68.374,291.672a2.36,2.36,0,0,0,.394-3.322,2.393,2.393,0,0,0-3.323-.379,2.36,2.36,0,0,0,2.929,3.7" transform="translate(-18.849 -83.941)" fill="#fff"/><path d="M155.273,38.894a2.36,2.36,0,0,0-.537-4.659,2.977,2.977,0,0,0-.535.047V34.3a2.36,2.36,0,1,0,1.072,4.6" transform="translate(-44.493 -9.997)" fill="#fff"/><path d="M183.34,32.585a2.348,2.348,0,0,0-2.346-2.22h-.157a2.366,2.366,0,0,0,.3,4.722,2.348,2.348,0,0,0,2.2-2.5" transform="translate(-52.159 -8.867)" fill="#fff"/><path d="M194.317,30.077h-.047a2.381,2.381,0,0,0-2.362,2.315,2.362,2.362,0,1,0,2.409-2.315" transform="translate(-56.037 -8.782)" fill="#fff"/><path d="M260.63,48.432a2.361,2.361,0,0,0-1.134-3.148,2.453,2.453,0,0,0-.991-.22,2.351,2.351,0,0,0-2.141,1.354,2.359,2.359,0,1,0,4.266,2.014" transform="translate(-74.793 -13.159)" fill="#fff"/><path d="M168.132,36.436a2.359,2.359,0,0,0-.347-4.692,2.643,2.643,0,0,0-.347.032,2.356,2.356,0,1,0,.694,4.66" transform="translate(-48.301 -9.269)" fill="#fff"/><path d="M235.885,38.827a2.37,2.37,0,0,0-1.655-2.912,2.15,2.15,0,0,0-.629-.08,2.359,2.359,0,1,0,2.283,2.992" transform="translate(-67.52 -10.464)" fill="#fff"/><path d="M141.948,37.793a2.364,2.364,0,1,0,.724,4.613,2.365,2.365,0,0,0-.724-4.613" transform="translate(-40.757 -11.036)" fill="#fff"/><path d="M247.07,40.07a2.556,2.556,0,0,0-.835-.142,2.343,2.343,0,1,0,.835.142" transform="translate(-71.213 -11.659)" fill="#fff"/><path d="M209.885,33.5a2.363,2.363,0,0,0-2.109-2.582,1.461,1.461,0,0,0-.253-.016,2.36,2.36,0,1,0,2.362,2.6" transform="translate(-59.909 -9.023)" fill="#fff"/><path d="M223,35.615a2.361,2.361,0,0,0-1.89-2.755,2.072,2.072,0,0,0-.441-.047,2.365,2.365,0,1,0,2.331,2.8" transform="translate(-63.747 -9.581)" fill="#fff"/><path d="M221.042,344.5a3.736,3.736,0,0,0-.441.033,2.411,2.411,0,1,0,.441-.033" transform="translate(-63.855 -100.593)" fill="#fff"/><path d="M47.19,258.04a2.351,2.351,0,0,0-.961-4.5,2.25,2.25,0,0,0-.96.2,2.354,2.354,0,1,0,1.921,4.3" transform="translate(-12.808 -74.033)" fill="#fff"/><path d="M60.387,281.065a2.362,2.362,0,0,0,.661-3.275h-.016a2.325,2.325,0,0,0-1.953-1.039,2.4,2.4,0,0,0-1.322.394,2.36,2.36,0,1,0,2.629,3.92" transform="translate(-16.561 -80.811)" fill="#fff"/><path d="M60.853,104.586a2.357,2.357,0,0,0-.646-3.275,2.387,2.387,0,0,0-1.307-.394,2.362,2.362,0,1,0,1.953,3.669" transform="translate(-16.506 -29.468)" fill="#fff"/><path d="M35.06,220.185a2.362,2.362,0,0,0-.394-4.691,1.863,1.863,0,0,0-.393.046,2.345,2.345,0,0,0-1.936,2.71v.015a2.365,2.365,0,0,0,2.723,1.919" transform="translate(-9.432 -62.924)" fill="#fff"/><path d="M30.06,191.181v.126a2.362,2.362,0,1,0,4.723,0,.3.3,0,0,0-.016-.126.417.417,0,0,0,.016-.142,2.362,2.362,0,0,0-4.723,0Z" transform="translate(-8.777 -55.094)" fill="#fff"/><path d="M32.272,164.21a2.38,2.38,0,0,0,1.937,2.723A2.363,2.363,0,0,0,35,162.273a3.2,3.2,0,0,0-.394-.031,2.374,2.374,0,0,0-2.331,1.968" transform="translate(-9.415 -47.374)" fill="#fff"/><path d="M30.613,177.583a2.362,2.362,0,1,0,2.535-2.157h-.189a2.352,2.352,0,0,0-2.346,2.157" transform="translate(-8.936 -51.224)" fill="#fff"/><path d="M38.048,233.145a2.361,2.361,0,0,0,1.684-2.881,2.338,2.338,0,0,0-2.283-1.764,2.653,2.653,0,0,0-.6.063,2.368,2.368,0,0,0,1.2,4.581" transform="translate(-10.246 -66.722)" fill="#fff"/><path d="M40.413,141.117a2.357,2.357,0,1,0,1.543-4.455,2.154,2.154,0,0,0-.772-.127,2.346,2.346,0,0,0-2.22,1.592v-.017a2.345,2.345,0,0,0,1.449,3.007" transform="translate(-11.338 -39.868)" fill="#fff"/><path d="M42.086,245.778a2.353,2.353,0,1,0-3.007-1.433,2.347,2.347,0,0,0,3.007,1.433" transform="translate(-11.373 -70.429)" fill="#fff"/><path d="M36.778,153.894a2.364,2.364,0,0,0,1.164-4.581,2.451,2.451,0,0,0-.581-.08,2.385,2.385,0,0,0-2.3,1.781h.018a2.364,2.364,0,0,0,1.7,2.881" transform="translate(-10.22 -43.576)" fill="#fff"/><path d="M47.037,124.38a2.216,2.216,0,0,0-.944-.2,2.362,2.362,0,0,0-.976,4.518,2.361,2.361,0,0,0,1.92-4.314" transform="translate(-12.767 -36.259)" fill="#fff"/><path d="M50.857,116.7a2.364,2.364,0,0,0,2.283-4.14,2.468,2.468,0,0,0-1.133-.282,2.356,2.356,0,0,0-1.15,4.423" transform="translate(-14.493 -32.786)" fill="#fff"/><path d="M73.905,301.479a2.362,2.362,0,0,0,3.434-3.243,2.367,2.367,0,0,0-3.449,3.243Z" transform="translate(-21.39 -86.868)" fill="#fff"/><path d="M83.371,307.556a2.35,2.35,0,0,0,.173,3.338,2.358,2.358,0,1,0,3.148-3.511,2.331,2.331,0,0,0-3.322.173" transform="translate(-24.165 -89.576)" fill="#fff"/><path d="M33.2,207.038a2.358,2.358,0,0,0-.221-4.707h-.19a2.381,2.381,0,0,0-2.157,2.567,2.357,2.357,0,0,0,2.568,2.14" transform="translate(-8.943 -59.08)" fill="#fff"/><path d="M107.546,323.178a2.271,2.271,0,0,0-1.259-.378,2.394,2.394,0,0,0-2,1.1,2.363,2.363,0,1,0,3.26-.741Z" transform="translate(-30.346 -94.257)" fill="#fff"/><path d="M129.837,335.073a2.369,2.369,0,0,0-.913,4.55,2.364,2.364,0,0,0,1.826-4.361,2.319,2.319,0,0,0-.913-.189" transform="translate(-37.224 -97.841)" fill="#fff"/><path d="M142.306,339.7a2.354,2.354,0,0,0-.724,4.6,2.357,2.357,0,1,0,.724-4.6" transform="translate(-40.863 -99.191)" fill="#fff"/><path d="M117.8,329.449a2.364,2.364,0,1,0,1.085.268,2.2,2.2,0,0,0-1.085-.268" transform="translate(-33.71 -96.199)" fill="#fff"/><path d="M95.374,315.239a2.324,2.324,0,0,0-1.873.929,2.36,2.36,0,1,0,3.306-.455,2.408,2.408,0,0,0-1.433-.474" transform="translate(-27.162 -92.049)" fill="#fff"/><path d="M53.3,269.834a2.357,2.357,0,0,0-1.135-4.424,2.482,2.482,0,0,0-1.148.284,2.375,2.375,0,0,0-.913,3.212,2.343,2.343,0,0,0,3.2.928" transform="translate(-14.545 -77.499)" fill="#fff"/><path d="M41.92,234.088,50.634,225a123.322,123.322,0,0,1,85.317-212.4A122.292,122.292,0,0,1,225,50.634l9.091-8.713A134.773,134.773,0,0,0,135.951,0C60.988,0,0,60.989,0,135.952a134.774,134.774,0,0,0,41.92,98.136" fill="#fff"/><path d="M155.405,287.467a132.257,132.257,0,0,1-83.282-29.648l-2.983,3.662a136.989,136.989,0,0,0,86.265,30.708c75.421,0,136.783-61.361,136.783-136.783a136.982,136.982,0,0,0-30.709-86.264l-3.662,2.982a132.252,132.252,0,0,1,29.648,83.282c0,72.819-59.241,132.061-132.06,132.061" transform="translate(-20.189 -20.189)" fill="#fff"/></g></g></g></svg>