<svg xmlns="http://www.w3.org/2000/svg" xmlns:xlink="http://www.w3.org/1999/xlink" width="75" height="95" viewBox="0 0 75 95"><defs><clipPath id="a"><rect width="75" height="95" fill="none"/></clipPath><clipPath id="c"><rect width="75" height="95"/></clipPath></defs><g id="b" clip-path="url(#c)"><g clip-path="url(#a)"><path d="M19.953,70.74c.011-6.344,1.6-11.445,5.095-15.78,1.211-1.5.844-2.184-.355-3.22A50.665,50.665,0,0,1,8.833,28.122c-.415-1.344-1.455-1.727-2.4-2.347A13.577,13.577,0,0,1,.617,10.293C2.638,3.939,8.483-.33,14.76.021c3.835.214,6.831,2.227,9.192,5.02a17.444,17.444,0,0,0,8.2,5.761c3.207,1.026,4.325,3.4,3.277,6.588a4.019,4.019,0,0,0,1,4.338A70.37,70.37,0,0,0,63.32,41.865a7.49,7.49,0,0,1,3.9,3.453c4.123,7.471,7.336,15.25,7.742,23.9.576,12.266-6.576,21.642-19.585,25.14-5.708,1.535-11.015.246-15.786-3.18a19.156,19.156,0,0,0-4.645-2.054c-7.231-2.746-12.919-7.02-14.653-15.12a24.2,24.2,0,0,1-.344-3.266M33.839,84.666a32.706,32.706,0,0,1-1.651-5.736c-.146-1.3-.423-2.788,1.238-3.055,1.566-.252,1.714,1.258,1.895,2.409,1.07,6.834,5.2,10.917,11.649,12.625,11.243,2.976,24.223-7.144,24.677-19.042C72,62.5,68.55,54.29,64.12,46.357a5.085,5.085,0,0,0-2.752-2.042,85.488,85.488,0,0,1-10-5.236C44.407,34.943,38.879,29.19,33.6,23.162c-.651-.743-1.035-1.519-2.375-.909-6.008,2.733-12.184,3.482-18.485.992-1.276-.5-1.662-.076-1.524,1.154a20.224,20.224,0,0,0,1.77,6.472C18.668,42.84,27.037,52.056,39.6,56.949c.972.379,2.293.671,1.8,2.159s-1.7,1.275-2.9.865a29.127,29.127,0,0,1-7.7-3.77c-1.546-1.112-2.486-.773-3.518.647A23.443,23.443,0,0,0,23.184,67C21.864,74.97,26.246,82.42,33.839,84.666M7.631,22.3a8.106,8.106,0,0,0-1.185-6.13c-.547-.9-.749-1.943.456-2.517.988-.47,1.709.081,2.211.949.225.388.433.787.66,1.174,3.8,6.481,15.843,8.056,21.3,2.787,2.2-2.124,1.833-4.286-1.034-5.284a15.171,15.171,0,0,1-7.719-5.515A12.008,12.008,0,0,0,16.6,3.46c-4.445-1.621-7.87.107-8.6,4.314-.165.946.372,2.588-1.187,2.5-1.292-.072-.532-1.65-.889-2.488-.041-.1-.265-.113-.4-.166C1.659,12.873,2.55,19.208,7.631,22.3" transform="translate(0 0)" fill="#fff"/></g></g></svg>