<svg xmlns="http://www.w3.org/2000/svg" xmlns:xlink="http://www.w3.org/1999/xlink" width="600" height="75" viewBox="0 0 600 75"><defs><clipPath id="b"><rect width="600" height="75"/></clipPath></defs><g id="a" clip-path="url(#b)"><path d="M922.277,110.821h-9.138l-2.9-2.9L898.611,96.29h9.135Z" transform="translate(-526.887 -57.171)" fill="#1f9fff"/><path d="M957.637,110.821H947.5L932.971,96.29h10.135Z" transform="translate(-547.033 -57.171)" fill="#1f9fff"/><path d="M994.417,110.821H984.283L969.751,96.29h10.135Z" transform="translate(-568.599 -57.171)" fill="#1f9fff"/><path d="M1031.2,110.821h-10.135L1006.531,96.29h10.135Z" transform="translate(-590.164 -57.171)" fill="#1f9fff"/><path d="M1067.975,110.821H1057.84L1043.312,96.29h10.135Z" transform="translate(-611.729 -57.171)" fill="#1f9fff"/><path d="M1104.75,110.821h-10.135L1080.084,96.29h10.135Z" transform="translate(-633.29 -57.171)" fill="#1f9fff"/><path d="M1141.53,110.821H1131.4L1116.864,96.29H1127Z" transform="translate(-654.856 -57.171)" fill="#1f9fff"/><path d="M1178.31,110.821h-10.135L1153.644,96.29h10.135Z" transform="translate(-676.421 -57.171)" fill="#1f9fff"/><path d="M1215.09,110.821h-10.135L1190.424,96.29h10.135Z" transform="translate(-697.919 -57.171)" fill="#1f9fff"/><path d="M1251.87,110.821h-10.135L1227.2,96.29h10.135Z" transform="translate(-719.497 -57.171)" fill="#1f9fff"/><path d="M1288.648,110.821h-10.135L1263.985,96.29h10.135Z" transform="translate(-741.075 -57.171)" fill="#1f9fff"/><path d="M1325.423,110.821h-10.135L1300.757,96.29h10.135Z" transform="translate(-762.648 -57.171)" fill="#1f9fff"/><path d="M1362.2,110.821h-10.135L1337.537,96.29h10.135Z" transform="translate(-784.226 -57.171)" fill="#1f9fff"/><path d="M1398.983,110.821h-10.135L1374.317,96.29h10.135Z" transform="translate(-805.804 -57.171)" fill="#1f9fff"/><path d="M1421.231,96.291H1411.1l10.135,10.134Z" transform="translate(-827.381 -57.127)" fill="#1f9fff"/><path d="M883.724,81.4l2.165,2.168h229.934v18.517h2.165V81.4Z" transform="translate(-517.988 -48.397)" fill="#fff"/><path d="M926.684,44.63l-12.3,12.3h84.137l5.07-5.062h30.4l7.236-7.236ZM1033.1,49.7h-30.4l-5.069,5.062H919.615l7.972-7.965H1036Z" transform="translate(-536.069 -26.488)" fill="#fff"/><path d="M1206.558,69.142h-81.971l-7.236,7.236h96.442Z" transform="translate(-655.05 -41.001)" fill="#fff"/><path d="M813.772,141.964l-5.878,5.886L796.4,159.338h43.6L850.139,149.2h25.34l7.229-7.236Z" transform="translate(-466.927 -84.339)" fill="#fff"/><path d="M961.022,141.964l-11.583,11.583H920.48l-5.792,5.792h34.75l11.583-11.583H1047.9l5.792-5.792Z" transform="translate(-536.153 -84.339)" fill="#fff"/><path d="M494.628,110.821h9.138l2.9-2.9L518.294,96.29H509.16Z" transform="translate(-290.018 -57.171)" fill="#f22"/><path d="M457.848,110.821h10.135L482.514,96.29H472.38Z" transform="translate(-268.452 -57.171)" fill="#f22"/><path d="M421.068,110.821H431.2L445.734,96.29H435.6Z" transform="translate(-246.887 -57.171)" fill="#f22"/><path d="M384.288,110.821h10.135L408.954,96.29H398.819Z" transform="translate(-225.321 -57.171)" fill="#f22"/><path d="M347.516,110.821H357.65L372.179,96.29H362.044Z" transform="translate(-203.76 -57.171)" fill="#f22"/><path d="M310.735,110.821H320.87L335.4,96.29H325.267Z" transform="translate(-182.195 -57.171)" fill="#f22"/><path d="M273.955,110.821H284.09L298.622,96.29H288.487Z" transform="translate(-160.63 -57.171)" fill="#f22"/><path d="M237.175,110.821H247.31L261.841,96.29H251.707Z" transform="translate(-139.064 -57.171)" fill="#f22"/><path d="M200.4,110.821H210.53L225.061,96.29H214.927Z" transform="translate(-117.566 -57.171)" fill="#f22"/><path d="M163.615,110.821H173.75L188.281,96.29H178.146Z" transform="translate(-95.988 -57.171)" fill="#f22"/><path d="M126.843,110.821h10.135L151.506,96.29H141.371Z" transform="translate(-74.415 -57.171)" fill="#f22"/><path d="M90.063,110.821H100.2L114.729,96.29H104.594Z" transform="translate(-52.837 -57.171)" fill="#f22"/><path d="M53.282,110.821H63.417L77.949,96.29H67.814Z" transform="translate(-31.259 -57.171)" fill="#f22"/><path d="M16.5,110.821H26.637L41.169,96.29H31.034Z" transform="translate(-9.681 -57.171)" fill="#f22"/><path d="M14.88,96.291H25.015L14.88,106.425Z" transform="translate(-8.73 -57.127)" fill="#f22"/><path d="M0,81.4v20.685H2.165V83.572H232.1l2.165-2.168Z" transform="translate(0 -48.397)" fill="#fff"/><path d="M229.225,44.629l7.236,7.236h30.4l5.069,5.062H356.07l-12.3-12.3Zm5.228,2.167H342.869l7.973,7.965H272.828L267.758,49.7h-30.4Z" transform="translate(-134.386 -26.487)" fill="#fff"/><path d="M99.814,76.378h96.442l-7.236-7.236H107.05Z" transform="translate(-58.558 -41.001)" fill="#fff"/><path d="M445.291,141.964l7.229,7.236h25.34l10.132,10.139h43.6l-11.49-11.489-5.878-5.886Z" transform="translate(-261.072 -84.339)" fill="#fff"/><path d="M199.517,141.964l5.792,5.792h86.874l11.583,11.583h34.749l-5.792-5.792H303.766l-11.583-11.583Z" transform="translate(-117.051 -84.339)" fill="#fff"/><text transform="translate(266.24 29.47)" fill="#fff" font-size="21" font-family="Fontspace"><tspan x="0" y="0">KONG</tspan></text><path d="M606.346,23.623,626.769,3.49h51.722l20.416,20.133L652.636,69.254ZM626.369,0,601.475,24.549,652.634,75l10.68-10.533,40.479-39.918L678.9,0Z" transform="translate(-352.634)" fill="#fff"/></g></svg>