<svg xmlns="http://www.w3.org/2000/svg" xmlns:xlink="http://www.w3.org/1999/xlink" width="48" height="40" viewBox="0 0 48 40"><defs><clipPath id="a"><rect width="48" height="40" fill="none"/></clipPath><clipPath id="c"><rect width="48" height="40"/></clipPath></defs><g id="b" clip-path="url(#c)"><g clip-path="url(#a)"><path d="M127.926,35.261a22.29,22.29,0,0,1,.68,2.255l.768-.189a22.98,22.98,0,0,0-.7-2.33Z" transform="translate(-82.067 -22.498)" fill="#fff"/><path d="M20.281,6.611c-.617.528-1.211,1.092-1.772,1.675l.574.544c.542-.564,1.12-1.108,1.713-1.616Z" transform="translate(-11.874 -4.25)" fill="#fff"/><path d="M131.794,48.383a23.369,23.369,0,0,0-.293-2.416l-.783.134a23.059,23.059,0,0,1,.289,2.337Z" transform="translate(-83.858 -29.55)" fill="#fff"/><path d="M117.8,15.3l-.617.5a22.441,22.441,0,0,1,1.4,1.9l.661-.434A24.036,24.036,0,0,0,117.8,15.3" transform="translate(-75.177 -9.834)" fill="#fff"/><path d="M111.847,8.825c-.554-.591-1.144-1.163-1.753-1.695l-.522.6a22.948,22.948,0,0,1,1.7,1.636Z" transform="translate(-70.292 -4.584)" fill="#fff"/><path d="M132.268,57.371V57.28h-.791v.087c0,.78-.044,1.573-.119,2.349l.788.079c.079-.8.123-1.62.123-2.424" transform="translate(-84.268 -36.823)" fill="#fff"/><path d="M123.368,25.064a22.687,22.687,0,0,1,1.056,2.1l.724-.315a24.161,24.161,0,0,0-1.088-2.176Z" transform="translate(-79.142 -15.864)" fill="#fff"/><path d="M103.161,1.777A23.91,23.91,0,0,0,101.143.4l-.411.674c.669.406,1.321.855,1.95,1.329Z" transform="translate(-64.621 -0.255)" fill="#fff"/><path d="M127.144,79.342l-.748-.264a22.509,22.509,0,0,1-.9,2.176l.716.339a24.067,24.067,0,0,0,.93-2.251" transform="translate(-80.509 -50.836)" fill="#fff"/><path d="M130.621,68.591l-.779-.13a22.836,22.836,0,0,1-.514,2.294l.764.213a23.283,23.283,0,0,0,.53-2.377" transform="translate(-82.965 -44.011)" fill="#fff"/><path d="M7.671,24.4,6.987,24a23.292,23.292,0,0,0-1.116,2.164l.72.323A22.261,22.261,0,0,1,7.671,24.4" transform="translate(-3.766 -15.431)" fill="#fff"/><path d="M2.108,36.595l.764.2a23.466,23.466,0,0,1,.708-2.247l-.744-.276a23.968,23.968,0,0,0-.728,2.326" transform="translate(-1.352 -22.03)" fill="#fff"/><path d="M9.257,90.672l.657-.441a22.277,22.277,0,0,1-1.227-2.014l-.7.375a23.732,23.732,0,0,0,1.266,2.081" transform="translate(-5.126 -56.71)" fill="#fff"/><path d="M15.806,99.724l.57-.548A22.751,22.751,0,0,1,14.825,97.4l-.621.485a22.863,22.863,0,0,0,1.6,1.841" transform="translate(-9.112 -62.613)" fill="#fff"/><path d="M120.625,91.532a22.663,22.663,0,0,0,1.3-2.061l-.692-.382c-.384.682-.807,1.352-1.254,1.991Z" transform="translate(-76.969 -57.271)" fill="#fff"/><path d="M113.489,100.488a22.03,22.03,0,0,0,1.63-1.813l-.613-.493c-.495.607-1.025,1.2-1.579,1.754Z" transform="translate(-72.444 -63.117)" fill="#fff"/><path d="M.221,47.63l.787.067c.067-.78.17-1.565.313-2.333l-.775-.146A23.772,23.772,0,0,0,.221,47.63" transform="translate(-0.142 -29.069)" fill="#fff"/><path d="M2.045,69.8a22.459,22.459,0,0,1-.479-2.306l-.784.122A24.256,24.256,0,0,0,1.278,70Z" transform="translate(-0.502 -43.386)" fill="#fff"/><path d="M5.084,80.35a22.6,22.6,0,0,1-.866-2.187l-.752.248a24.3,24.3,0,0,0,.9,2.266Z" transform="translate(-2.223 -50.247)" fill="#fff"/><path d="M12.857,14.69a24.068,24.068,0,0,0-1.468,1.947l.657.441a22.319,22.319,0,0,1,1.42-1.884Z" transform="translate(-7.306 -9.444)" fill="#fff"/><path d="M0,56.871c0,.69.028,1.388.087,2.069l.787-.067c-.055-.658-.083-1.333-.083-2V56.52L0,56.508Z" transform="translate(0 -36.327)" fill="#fff"/><path d="M21.93,106.028a24.314,24.314,0,0,0,1.887,1.545l.471-.635c-.629-.465-1.246-.97-1.828-1.494Z" transform="translate(-14.068 -67.785)" fill="#fff"/><path d="M106.425,106.106c-.59.516-1.211,1.009-1.852,1.466l.463.639c.66-.473,1.306-.982,1.911-1.514Z" transform="translate(-67.085 -68.211)" fill="#fff"/><path d="M27.477,1.983c.633-.465,1.294-.906,1.966-1.308L29.04,0a23.373,23.373,0,0,0-2.034,1.351Z" transform="translate(-17.325 -0.001)" fill="#fff"/><path d="M39.621,26.044c-1.634-.067-3.272-.083-4.9-.122V21.007H29.749c-.024-.974-.047-1.947-.095-2.921-.118-2.858-.289-5.715-.617-8.573-.328,2.858-.5,5.716-.613,8.573-.052.974-.075,1.947-.1,2.921h-4.95v4.911c-1.642.043-3.28.055-4.922.126-3.529.114-7.055.284-10.584.615,3.529.327,7.054.5,10.584.615,1.642.067,3.28.083,4.922.122v4.911h4.95c.024.974.044,1.947.095,2.925.115,2.858.289,5.716.617,8.573.328-2.858.5-5.715.617-8.573.052-.977.071-1.951.095-2.925h4.969V27.4c1.63-.04,3.268-.055,4.9-.126,3.529-.115,7.054-.284,10.584-.611-3.529-.327-7.055-.5-10.584-.615m-6.88,1.372v2.921H25.354V22.978H32.74v4.438Z" transform="translate(-5.049 -6.115)" fill="#ff1d43"/><path d="M37.587,21.761h0V20.579H30v7.556H31.19a6.386,6.386,0,0,1,6.4-6.374" transform="translate(-19.247 -13.229)" fill="#fff"/><path d="M90.311,28.136V20.58H82.726v1.183h0a6.386,6.386,0,0,1,6.4,6.374h1.187Z" transform="translate(-53.07 -13.23)" fill="#fff"/><path d="M31.189,73.3H30v7.556h7.585V79.677h0a6.386,6.386,0,0,1-6.4-6.374" transform="translate(-19.247 -47.123)" fill="#fff"/><path d="M89.124,73.3a6.386,6.386,0,0,1-6.4,6.374h0v1.183h7.585V73.3H89.124Z" transform="translate(-53.07 -47.123)" fill="#fff"/></g></g></svg>